<?xml version="1.0" standalone="no"?>
<!DOCTYPE svg PUBLIC "-//W3C//DTD SVG 20010904//EN"
 "http://www.w3.org/TR/2001/REC-SVG-20010904/DTD/svg10.dtd">
<svg version="1.0" xmlns="http://www.w3.org/2000/svg"
 width="512.000000pt" height="512.000000pt" viewBox="0 0 512.000000 512.000000"
 preserveAspectRatio="xMidYMid meet">

<g transform="translate(0.000000,512.000000) scale(0.100000,-0.100000)"
fill="#000000" stroke="none">
<path d="M2572 4134 c-19 -13 -22 -24 -22 -90 l0 -74 -55 0 -55 0 0 73 c0 77
-9 97 -45 97 -36 0 -45 -20 -45 -97 l0 -73 -30 0 -30 0 2 -92 c1 -102 15 -150
48 -168 28 -15 192 -25 255 -16 33 5 57 17 77 36 27 28 28 31 28 134 l0 106
-30 0 -29 0 -3 76 c-3 64 -6 79 -23 90 -18 12 -24 11 -43 -2z m-162 -95 c0
-55 -3 -69 -15 -69 -12 0 -15 14 -15 68 0 38 3 72 6 75 16 16 24 -9 24 -74z
m200 0 c0 -55 -3 -69 -15 -69 -12 0 -15 14 -15 68 0 38 3 72 6 75 16 16 24 -9
24 -74z m-89 -99 l158 0 -6 -82 c-4 -69 -9 -87 -29 -108 -24 -24 -29 -25 -150
-25 -126 0 -126 0 -150 28 -22 25 -24 37 -23 105 2 87 5 96 26 88 8 -3 86 -6
174 -6z"/>
<path d="M2343 3888 c3 -10 36 -13 122 -13 86 0 119 3 123 13 3 9 -26 12 -123
12 -97 0 -126 -3 -122 -12z"/>
<path d="M3315 3710 c-3 -5 -3 -10 2 -10 4 0 -12 -13 -37 -29 -80 -51 -110
-97 -110 -169 0 -26 -8 -44 -24 -60 -20 -19 -52 -110 -42 -119 2 -2 169 -4
371 -5 270 -1 370 2 373 11 2 6 -1 11 -6 11 -5 0 -8 21 -8 46 1 37 -4 49 -23
66 -14 10 -37 22 -53 25 -15 3 -28 11 -28 19 0 7 -4 16 -10 19 -6 3 -7 -1 -4
-10 5 -11 -5 -26 -27 -45 -38 -33 -54 -37 -62 -15 -4 8 -24 23 -47 35 -22 11
-40 27 -40 34 0 24 -59 66 -93 66 -38 0 -103 -41 -112 -70 -5 -17 -15 -20 -60
-20 -29 0 -60 -3 -69 -6 -12 -5 -16 0 -16 20 0 53 49 122 114 161 9 6 18 20
21 33 4 23 0 28 -10 12z m177 -181 l31 -30 -36 -25 c-20 -13 -38 -24 -42 -24
-3 0 -2 18 1 40 4 25 3 40 -4 40 -12 0 -22 -24 -22 -51 0 -23 -3 -23 -41 -3
-26 13 -29 17 -17 31 17 21 69 53 86 53 8 0 27 -14 44 -31z m-112 -86 c19 -8
45 -20 57 -26 19 -9 26 -6 44 16 26 34 79 37 109 7 11 -11 20 -24 20 -28 0 -5
16 -8 35 -8 24 1 40 9 51 24 17 25 60 29 87 10 19 -14 36 -66 30 -85 -4 -10
-80 -13 -339 -13 l-334 0 0 28 c1 85 125 124 240 75z"/>
<path d="M3234 3405 c-22 -34 -8 -47 16 -15 22 28 25 40 10 40 -5 0 -17 -11
-26 -25z"/>
<path d="M2139 3577 c-24 -13 -57 -43 -74 -66 l-30 -43 -3 -426 c-2 -386 -1
-431 14 -465 17 -36 17 -40 -1 -69 -10 -17 -37 -83 -59 -147 -36 -102 -45
-117 -71 -129 -64 -28 -80 -39 -102 -71 -21 -31 -23 -45 -23 -167 0 -144 7
-164 56 -164 22 0 24 -4 24 -45 l0 -45 -297 -2 c-193 -2 -297 -7 -295 -13 4
-16 2514 -14 2520 3 3 9 -74 12 -362 12 l-366 0 0 45 c0 41 2 45 24 45 45 0
51 21 48 174 -3 174 -7 181 -117 228 -26 11 -34 26 -62 108 -18 52 -43 116
-54 142 l-22 46 24 39 24 38 0 420 c0 411 0 421 -22 460 -24 46 -55 76 -100
99 -27 14 -75 16 -331 16 -294 0 -300 0 -343 -23z m682 -33 c85 -62 84 -55 87
-508 3 -388 2 -399 -19 -442 l-21 -44 -42 25 -43 25 -309 0 c-289 0 -312 -1
-346 -20 l-37 -20 -16 22 c-13 19 -15 80 -15 443 0 418 0 420 23 457 27 45 62
73 108 87 20 6 144 9 311 8 l276 -2 43 -31z m-23 -988 c55 -29 80 -69 125
-199 45 -128 63 -156 102 -157 30 0 60 -25 79 -64 20 -42 23 -255 4 -274 -21
-21 -38 -13 -38 18 l0 30 -285 0 c-191 0 -285 3 -285 10 0 6 8 27 19 48 10 20
22 47 25 60 7 21 4 22 -38 22 -25 0 -46 5 -46 10 0 6 14 37 30 70 l30 60 173
2 c199 3 184 -12 134 133 -18 54 -42 101 -58 118 l-27 27 -279 0 c-277 0 -280
0 -301 -22 -23 -25 -104 -236 -96 -250 3 -4 97 -8 210 -8 112 0 204 -2 204 -5
0 -3 -16 -37 -35 -75 -19 -38 -35 -74 -35 -79 0 -6 22 -11 48 -13 l48 -3 -23
-52 -24 -53 -295 0 -294 0 0 -30 c0 -31 -6 -35 -34 -24 -14 5 -16 27 -16 141
l0 135 34 34 c20 20 44 34 58 34 38 0 57 29 104 161 44 123 65 156 119 190 28
17 55 19 333 19 241 0 308 -3 330 -14z m-381 -154 c-35 -35 -47 -62 -29 -62 4
0 30 23 57 50 l49 50 122 0 c105 0 123 -2 138 -18 12 -14 76 -180 76 -199 0
-2 -125 -3 -277 -3 l-277 0 27 28 c26 27 35 52 19 52 -4 0 -26 -18 -47 -40
-38 -39 -41 -40 -107 -40 -37 0 -68 1 -68 3 0 12 64 176 76 195 14 21 21 22
146 22 l132 0 -37 -38z m453 -576 c0 -30 3 -61 6 -70 6 -14 -34 -16 -406 -16
-372 0 -412 2 -406 16 3 9 6 40 6 70 l0 54 400 0 400 0 0 -54z"/>
<path d="M2334 3516 c-3 -14 -3 -33 0 -44 6 -18 1 -19 -75 -18 -77 1 -82 0
-105 -28 l-25 -28 3 -295 3 -295 24 -19 c22 -18 43 -19 321 -19 278 0 299 1
321 19 l24 19 3 294 c3 287 2 295 -18 321 -20 25 -26 27 -104 27 l-83 0 1 43
1 42 -142 3 -142 3 -7 -25z m264 -28 c-3 -22 -8 -23 -112 -26 -81 -2 -112 1
-118 10 -21 34 -10 38 113 38 119 0 120 0 117 -22z m189 -84 c10 -14 13 -84
13 -293 0 -241 -2 -277 -17 -293 -15 -17 -38 -18 -304 -18 -248 0 -290 2 -303
16 -14 13 -16 54 -16 295 0 270 1 280 21 300 21 21 26 21 307 16 259 -5 287
-7 299 -23z"/>
<path d="M2551 3167 c-13 -21 -12 -21 5 -5 10 10 16 20 13 22 -3 3 -11 -5 -18
-17z"/>
<path d="M2550 3065 c-7 -9 -8 -15 -2 -15 5 0 12 7 16 15 3 8 4 15 2 15 -2 0
-9 -7 -16 -15z"/>
<path d="M2150 2700 c-21 -21 -24 -32 -14 -43 4 -3 14 3 24 15 22 28 50 18 50
-18 0 -33 24 -27 28 8 2 18 -4 31 -20 42 -30 21 -44 20 -68 -4z"/>
<path d="M2742 2704 c-25 -17 -29 -56 -7 -74 13 -11 15 -8 15 19 0 38 23 50
49 27 27 -24 37 -2 11 24 -24 24 -38 25 -68 4z"/>
<path d="M2357 2704 c-18 -18 15 -24 124 -24 99 0 119 3 119 15 0 12 -20 15
-118 15 -65 0 -122 -3 -125 -6z"/>
<path d="M1892 2094 c-27 -19 -28 -45 -2 -69 17 -15 24 -16 45 -7 32 15 35 66
6 82 -25 13 -22 13 -49 -6z m33 -44 c-5 -8 -11 -8 -17 -2 -6 6 -7 16 -3 22 5
8 11 8 17 2 6 -6 7 -16 3 -22z"/>
<path d="M2987 2092 c-22 -25 -21 -45 3 -67 17 -15 24 -16 45 -7 44 20 27 92
-23 92 -5 0 -16 -8 -25 -18z m43 -26 c0 -8 -4 -17 -9 -21 -12 -7 -24 12 -16
25 9 15 25 12 25 -4z"/>
<path d="M1595 3493 c-19 -11 -54 -17 -94 -17 -62 -1 -64 -2 -101 -43 -38 -43
-50 -77 -50 -139 0 -18 -4 -36 -10 -39 -5 -3 -10 -11 -10 -16 0 -6 5 -7 10 -4
6 3 10 -1 10 -9 0 -9 5 -16 10 -16 6 0 10 7 10 15 0 9 6 12 18 8 16 -6 16 -5
0 14 -35 39 -8 153 44 187 31 20 79 29 96 18 10 -7 9 -16 -9 -46 -31 -53 -22
-110 25 -153 31 -29 43 -33 88 -33 69 0 113 26 127 75 11 40 3 73 -23 94 -9 7
-16 24 -16 37 0 29 -38 72 -70 78 -14 3 -38 -2 -55 -11z m77 -30 c31 -37 29
-52 -12 -92 -39 -37 -51 -61 -30 -61 5 0 17 11 26 25 19 30 50 41 69 25 21
-18 18 -53 -6 -84 -18 -23 -28 -26 -80 -26 -77 0 -109 27 -109 90 0 42 25 94
41 84 5 -3 9 0 9 7 0 21 32 49 55 49 12 0 29 -8 37 -17z"/>
<path d="M3060 3187 c0 -8 3 -17 6 -20 10 -9 46 12 39 24 -9 14 -45 11 -45 -4z
m37 -3 c-3 -3 -12 -4 -19 -1 -8 3 -5 6 6 6 11 1 17 -2 13 -5z"/>
<path d="M1655 3058 c-169 -61 -237 -90 -255 -108 -9 -9 -21 -15 -27 -13 -6 2
-40 -23 -75 -56 -88 -82 -121 -150 -126 -259 -5 -99 11 -149 63 -206 l35 -39
0 -137 c0 -191 14 -208 20 -25 5 144 6 150 25 145 11 -3 56 -5 100 -5 68 1 88
5 134 29 72 37 151 118 184 188 51 107 60 166 55 346 -3 90 -9 167 -14 171 -5
5 -58 -9 -119 -31z m99 -35 c3 -21 6 -92 6 -158 0 -187 -35 -287 -136 -387
-77 -77 -181 -112 -279 -94 -36 7 -37 9 -31 39 11 59 65 153 125 219 45 49
168 157 210 185 2 1 1 9 -3 18 -5 13 -17 8 -68 -31 -141 -109 -262 -258 -289
-356 -5 -21 -13 -38 -17 -38 -10 0 -49 59 -62 94 -16 44 -15 136 3 191 10 28
35 74 57 103 43 57 50 72 23 51 -16 -13 -17 -12 -4 3 7 10 18 15 23 12 5 -3
26 7 46 23 20 15 60 39 87 51 43 20 279 108 296 111 4 1 9 -16 13 -36z"/>
<path d="M3078 2878 c-3 -51 -5 -148 -4 -216 l1 -124 33 -29 c42 -38 98 -39
157 -4 78 45 115 116 115 217 0 128 -61 195 -205 224 -33 6 -67 15 -76 18 -14
6 -17 -5 -21 -86z m94 41 c114 -24 173 -81 184 -175 7 -61 -25 -154 -63 -184
-32 -25 -43 -25 -36 0 10 39 -17 117 -57 160 -51 55 -70 43 -25 -16 82 -108
66 -234 -25 -191 -51 24 -60 64 -54 237 6 152 8 180 18 180 3 0 29 -5 58 -11z"/>
<path d="M1870 2610 c0 -19 3 -21 12 -12 9 9 9 15 0 24 -9 9 -12 7 -12 -12z"/>
<path d="M3499 2622 c9 -7 10 -11 2 -15 -7 -4 -8 -5 -1 -3 16 2 14 20 -2 24
-10 3 -10 2 1 -6z"/>
<path d="M1812 2439 c2 -6 8 -10 13 -10 5 0 11 4 13 10 2 6 -4 11 -13 11 -9 0
-15 -5 -13 -11z"/>
<path d="M3030 2410 c0 -5 7 -10 15 -10 8 0 15 5 15 10 0 6 -7 10 -15 10 -8 0
-15 -4 -15 -10z"/>
<path d="M3595 2359 c-4 -6 -4 -13 -1 -16 3 -4 6 -1 6 6 0 7 5 9 12 5 7 -4 8
-3 4 4 -9 15 -13 15 -21 1z"/>
<path d="M1160 2275 c0 -9 5 -15 11 -13 6 2 11 8 11 13 0 5 -5 11 -11 13 -6 2
-11 -4 -11 -13z"/>
<path d="M3470 2273 c0 -15 2 -16 10 -3 9 13 11 13 20 0 8 -13 10 -12 10 3 0
10 -8 17 -20 17 -12 0 -20 -7 -20 -17z"/>
<path d="M1395 2260 c-7 -12 2 -30 16 -30 12 0 12 27 0 35 -5 3 -12 1 -16 -5z"/>
<path d="M3665 2243 c17 -44 24 -78 17 -85 -14 -14 -245 -5 -250 10 -2 8 7 12
27 12 17 0 31 5 31 10 0 6 -27 10 -60 10 -47 0 -60 -3 -60 -15 0 -8 9 -15 20
-15 30 0 35 -40 10 -83 -20 -34 -24 -36 -71 -35 -57 0 -91 -18 -119 -65 -57
-93 19 -216 124 -203 51 6 86 33 111 84 19 40 22 41 68 42 34 0 47 4 47 14 0
8 35 46 78 85 65 60 78 68 80 51 2 -12 -9 -32 -27 -50 -67 -67 -45 -172 46
-219 51 -26 132 0 164 53 11 18 19 50 19 74 0 83 -46 130 -132 135 l-42 2 -22
75 c-32 106 -31 110 12 110 31 0 36 -3 31 -20 -3 -13 0 -20 10 -20 10 0 13 9
11 28 -3 26 -5 27 -67 30 -58 3 -63 1 -56 -15z m35 -126 c0 -7 -36 -48 -79
-91 l-79 -79 -41 82 c-23 45 -39 86 -36 91 10 16 235 13 235 -3z m-221 -97
l39 -80 -29 0 c-19 0 -32 6 -36 18 -3 9 -17 31 -29 49 -23 31 -23 32 -6 62 9
17 18 31 19 31 2 0 20 -36 42 -80z m-119 5 c0 -12 -40 -84 -50 -90 -25 -15 -5
-24 60 -27 l69 -3 -16 -33 c-43 -88 -176 -80 -202 12 -13 49 -3 82 36 116 23
21 44 30 68 30 19 0 35 -2 35 -5z m480 -10 c32 -17 60 -61 60 -95 0 -56 -53
-110 -107 -110 -70 0 -113 43 -113 113 0 32 31 87 49 87 4 0 13 -17 19 -39 12
-37 37 -69 47 -59 3 3 -1 18 -9 34 -8 16 -18 41 -21 57 -7 24 -5 27 19 27 15
0 40 -7 56 -15z m-410 -64 c0 -10 -71 -23 -79 -15 -3 3 4 21 14 40 l19 36 23
-27 c13 -14 23 -30 23 -34z"/>
<path d="M1440 2173 c-33 -52 -57 -119 -47 -130 4 -3 8 -4 10 -2 1 2 17 34 36
72 18 37 37 67 41 67 4 0 35 -20 68 -45 33 -25 65 -45 71 -45 7 0 10 -4 7 -9
-3 -4 3 -27 14 -49 11 -23 20 -55 20 -72 0 -57 -41 -112 -92 -125 -23 -6 -26
-4 -21 14 3 11 1 34 -5 50 -9 26 -7 34 25 71 44 51 35 65 -13 19 l-35 -34 -20
24 c-12 15 -19 39 -19 67 0 23 -4 45 -9 48 -10 6 -21 -26 -21 -62 0 -19 -4
-22 -21 -17 -42 14 -126 20 -199 15 l-75 -5 2 -68 c4 -111 45 -167 123 -167
41 0 38 18 -5 26 -61 11 -102 82 -93 160 3 28 5 29 68 32 69 4 157 -11 202
-34 36 -19 55 -49 64 -101 8 -51 -7 -62 -65 -45 -37 12 -60 29 -86 67 -12 18
-13 17 -8 -10 20 -113 229 -127 299 -20 10 15 19 53 21 93 4 62 2 71 -26 115
-28 43 -68 78 -152 130 l-28 19 -31 -49z"/>
<path d="M1326 1923 c10 -40 14 -41 14 -5 0 18 -5 32 -10 32 -6 0 -8 -11 -4
-27z"/>
<path d="M2232 1169 c-2 -53 2 -69 16 -80 15 -12 16 -12 5 1 -7 9 -14 45 -16
80 l-3 65 -2 -66z"/>
<path d="M2382 1153 c0 -43 3 -63 5 -45 6 42 37 44 61 2 9 -16 21 -30 25 -30
5 0 -1 13 -12 28 -20 28 -20 29 0 45 23 21 24 40 2 58 -15 13 -15 12 -3 -8 18
-28 -1 -53 -41 -53 -26 0 -29 3 -29 34 0 28 4 35 23 39 19 4 18 4 -5 6 l-28 1
2 -77z"/>
<path d="M2549 1221 c44 -8 63 -37 38 -55 -15 -12 -16 -14 -2 -20 17 -6 21
-52 5 -59 -6 -3 -5 -4 2 -3 22 4 34 34 21 55 -8 13 -8 22 -1 29 5 5 7 19 4 30
-7 21 -35 32 -76 31 -19 -1 -17 -3 9 -8z"/>
<path d="M2695 1220 c-3 -5 -2 -10 3 -10 7 0 32 -64 32 -84 0 -3 -14 -6 -30
-6 -28 0 -30 2 -25 28 4 22 4 24 -4 7 -18 -37 -13 -45 27 -45 30 0 42 -5 51
-22 9 -18 10 -19 5 -3 -48 156 -47 154 -59 135z"/>
<path d="M2800 1221 c0 -6 4 -13 10 -16 6 -3 7 1 4 9 -7 18 -14 21 -14 7z"/>
<path d="M2890 1165 l-5 -70 -28 48 c-15 26 -30 47 -33 47 -3 0 7 -19 21 -42
14 -24 30 -50 35 -58 15 -26 21 -4 18 71 l-4 74 -4 -70z"/>
<path d="M2322 1160 c-1 -31 -6 -61 -12 -68 -5 -7 -3 -6 6 1 11 10 14 28 11
68 l-3 54 -2 -55z"/>
<path d="M2793 1140 c0 -36 2 -50 4 -32 2 17 2 47 0 65 -2 17 -4 3 -4 -33z"/>
<path d="M2035 1000 c3 -5 17 -10 30 -10 13 0 27 5 30 10 4 6 -8 10 -30 10
-22 0 -34 -4 -30 -10z"/>
<path d="M1674 985 c-8 -20 2 -45 18 -45 9 0 9 3 0 12 -24 24 -14 40 22 36 19
-2 32 0 30 4 -9 14 -64 9 -70 -7z"/>
<path d="M1793 960 c0 -25 2 -35 4 -22 2 12 2 32 0 45 -2 12 -4 2 -4 -23z"/>
<path d="M1870 945 c-5 -60 -5 -60 -40 -65 -24 -4 -30 -7 -18 -12 26 -11 58 2
64 26 3 13 4 42 2 67 -4 42 -4 41 -8 -16z"/>
<path d="M1925 990 c-3 -6 1 -7 9 -4 18 7 21 14 7 14 -6 0 -13 -4 -16 -10z"/>
<path d="M1960 996 c0 -2 7 -7 16 -10 8 -3 12 -2 9 4 -6 10 -25 14 -25 6z"/>
<path d="M2180 992 c0 -4 4 -12 9 -17 5 -6 12 -25 16 -44 7 -33 7 -34 -23 -29
-24 3 -32 0 -36 -15 -4 -15 -2 -17 7 -8 15 15 64 14 71 -1 7 -16 2 13 -14 75
-7 26 -17 47 -21 47 -5 0 -9 -4 -9 -8z"/>
<path d="M2522 933 c0 -38 3 -53 5 -35 4 31 7 33 36 30 34 -3 50 -34 25 -49
-10 -7 -10 -9 0 -9 18 0 27 30 15 49 -7 11 -7 21 0 33 16 24 -9 48 -49 48
l-34 0 2 -67z m73 32 c0 -15 -8 -21 -32 -23 -30 -3 -33 -1 -33 23 0 24 3 26
33 23 24 -2 32 -8 32 -23z"/>
<path d="M2651 984 c0 -11 3 -14 6 -6 3 7 2 16 -1 19 -3 4 -6 -2 -5 -13z"/>
<path d="M2740 935 l0 -65 43 2 42 1 -37 4 c-32 4 -38 8 -38 28 0 19 6 24 33
28 l32 4 -32 1 c-28 2 -33 6 -33 26 0 21 5 25 38 29 l37 4 -42 1 -43 2 0 -65z"/>
<path d="M2910 994 c0 -6 9 -28 20 -50 12 -23 18 -29 14 -14 -8 31 -33 79 -34
64z"/>
<path d="M2998 982 c-4 -12 -2 -20 3 -16 5 3 10 -19 11 -48 l2 -53 3 45 c2 25
0 57 -5 70 -9 23 -9 23 -14 2z"/>
<path d="M3070 985 c-19 -22 -8 -25 13 -3 9 10 13 18 8 18 -5 0 -14 -7 -21
-15z"/>
<path d="M3134 984 c9 -8 16 -31 16 -49 0 -18 -7 -41 -16 -49 -8 -9 -11 -16
-5 -16 15 0 31 34 31 65 0 31 -16 65 -31 65 -6 0 -3 -7 5 -16z"/>
<path d="M3191 994 c-1 -15 30 -106 35 -101 2 2 -5 28 -15 58 -11 30 -20 49
-20 43z"/>
<path d="M3271 978 c-16 -43 -22 -68 -18 -68 3 0 12 20 20 45 16 45 14 65 -2
23z"/>
<path d="M3320 935 l0 -65 43 2 42 1 -37 4 c-32 4 -38 8 -38 28 0 19 6 24 33
28 l32 4 -32 1 c-28 2 -33 6 -33 26 0 21 5 25 38 29 l37 4 -42 1 -43 2 0 -65z"/>
<path d="M2073 935 c0 -27 2 -38 4 -22 2 15 2 37 0 50 -2 12 -4 0 -4 -28z"/>
<path d="M2903 925 c0 -22 2 -30 4 -17 2 12 2 30 0 40 -3 9 -5 -1 -4 -23z"/>
<path d="M2976 935 c-9 -26 -7 -32 5 -12 6 10 9 21 6 23 -2 3 -7 -2 -11 -11z"/>
<path d="M1711 937 c2 -1 14 -11 27 -21 12 -11 22 -16 22 -13 0 10 -31 37 -42
37 -6 0 -9 -1 -7 -3z"/>
<path d="M1974 926 c12 -10 17 -23 13 -36 -3 -11 -1 -18 4 -14 17 10 9 43 -13
54 -22 10 -22 10 -4 -4z"/>
<path d="M2262 900 c0 -19 2 -27 5 -17 2 9 2 25 0 35 -3 9 -5 1 -5 -18z"/>
<path d="M2470 917 c0 -9 -11 -17 -27 -20 l-28 -4 28 -2 c26 -1 48 22 33 36
-3 4 -6 -1 -6 -10z"/>
<path d="M2312 890 c0 -14 2 -19 5 -12 2 6 2 18 0 25 -3 6 -5 1 -5 -13z"/>
<path d="M3060 903 c0 -6 8 -17 18 -24 16 -13 16 -13 2 6 -8 11 -16 22 -17 24
-2 2 -3 0 -3 -6z"/>
<path d="M2381 884 c0 -11 3 -14 6 -6 3 7 2 16 -1 19 -3 4 -6 -2 -5 -13z"/>
<path d="M3236 883 c-6 -14 -5 -15 5 -6 7 7 10 15 7 18 -3 3 -9 -2 -12 -12z"/>
<path d="M1667 879 c7 -7 15 -10 18 -7 3 3 -2 9 -12 12 -14 6 -15 5 -6 -5z"/>
<path d="M1930 870 c8 -5 22 -9 30 -9 10 0 8 3 -5 9 -27 12 -43 12 -25 0z"/>
<path d="M1813 715 c0 -27 2 -38 4 -22 2 15 2 37 0 50 -2 12 -4 0 -4 -28z"/>
<path d="M1891 746 c-16 -19 -6 -72 15 -80 30 -12 45 5 42 48 -2 33 -7 42 -24
44 -11 2 -26 -4 -33 -12z m44 -36 c0 -51 -29 -48 -33 3 -3 33 -1 38 15 35 13
-2 18 -12 18 -38z"/>
<path d="M1981 723 c-1 -23 3 -44 7 -47 4 -2 6 12 4 32 -5 56 -10 62 -11 15z"/>
<path d="M2028 715 c-2 -25 0 -45 4 -45 5 0 8 20 8 45 0 25 -2 45 -4 45 -2 0
-6 -20 -8 -45z"/>
<path d="M2063 753 c9 -2 23 -2 30 0 6 3 -1 5 -18 5 -16 0 -22 -2 -12 -5z"/>
<path d="M2132 740 c0 -14 2 -19 5 -12 2 6 2 18 0 25 -3 6 -5 1 -5 -13z"/>
<path d="M2210 738 c0 -13 -3 -34 -7 -46 -5 -22 -4 -23 16 -10 18 11 23 11 31
-2 8 -12 10 -10 9 10 0 14 -4 34 -9 45 -8 18 -9 17 -9 -7 -1 -16 -6 -28 -12
-28 -7 0 -9 10 -7 25 3 14 1 28 -3 31 -5 3 -9 -5 -9 -18z"/>
<path d="M2293 715 c0 -27 2 -38 4 -22 2 15 2 37 0 50 -2 12 -4 0 -4 -28z"/>
<path d="M2382 713 l1 -48 4 42 c3 29 9 43 21 46 12 3 11 5 -5 6 -21 1 -23 -3
-21 -46z"/>
<path d="M2488 735 c-8 -18 -8 -31 0 -47 9 -21 11 -19 11 20 1 36 4 42 22 42
17 0 20 -5 17 -25 -3 -14 -1 -25 5 -25 5 0 4 -7 -3 -15 -10 -12 -9 -15 4 -15
14 0 16 6 10 38 -9 48 -11 52 -35 52 -11 0 -24 -11 -31 -25z"/>
<path d="M2582 753 c12 -3 18 -17 21 -46 l4 -42 1 42 c2 30 7 43 20 46 9 3 -1
5 -23 5 -22 0 -32 -2 -23 -5z"/>
<path d="M2663 715 c0 -27 2 -38 4 -22 2 15 2 37 0 50 -2 12 -4 0 -4 -28z"/>
<path d="M2717 753 c-4 -3 -7 -11 -7 -17 0 -6 5 -5 12 2 6 6 9 14 7 17 -3 3
-9 2 -12 -2z"/>
<path d="M2782 713 c1 -48 1 -48 5 -8 3 22 10 43 16 47 8 5 6 8 -5 8 -15 0
-18 -8 -16 -47z"/>
<path d="M2833 715 c0 -27 2 -38 4 -22 2 15 2 37 0 50 -2 12 -4 0 -4 -28z"/>
<path d="M2898 715 c-2 -25 0 -45 4 -45 5 0 8 10 8 23 0 12 3 32 6 45 4 12 2
22 -4 22 -5 0 -12 -20 -14 -45z"/>
<path d="M2964 746 c-3 -8 -1 -22 4 -32 7 -13 9 -10 8 15 -1 34 -4 38 -12 17z"/>
<path d="M2998 731 c-2 -16 -1 -37 3 -47 5 -13 8 -3 8 29 1 53 -5 62 -11 18z"/>
<path d="M3050 716 c0 -30 5 -46 15 -50 25 -9 43 4 47 34 6 39 -8 60 -37 60
-23 0 -25 -4 -25 -44z m48 -3 c-2 -20 -9 -38 -15 -41 -18 -5 -29 28 -13 38 8
5 9 9 1 14 -18 11 -13 26 10 26 17 0 20 -5 17 -37z"/>
<path d="M3141 708 c1 -29 4 -43 6 -30 5 27 29 29 38 2 3 -11 11 -20 16 -20 6
0 7 6 1 17 -6 11 -6 23 1 34 16 26 1 49 -33 49 -30 0 -30 0 -29 -52z m49 22
c0 -13 -7 -20 -20 -20 -13 0 -20 7 -20 20 0 13 7 20 20 20 13 0 20 -7 20 -20z"/>
<path d="M3235 748 c-2 -7 -3 -29 -2 -48 2 -29 6 -35 27 -37 25 -3 25 -3 3 7
-13 5 -23 14 -23 20 0 6 10 15 23 20 17 7 18 9 5 9 -26 1 -22 29 5 34 19 4 18
4 -6 6 -15 0 -29 -5 -32 -11z"/>
<path d="M1852 713 c-1 -23 -8 -44 -14 -46 -10 -4 -10 -6 0 -6 17 -1 24 20 19
61 -3 30 -4 30 -5 -9z"/>
<path d="M2337 743 c-10 -9 -9 -73 1 -73 4 0 7 18 7 40 1 22 0 40 0 40 -1 0
-5 -3 -8 -7z"/>
<path d="M2730 714 c0 -10 5 -26 10 -34 8 -11 9 -7 4 15 -8 37 -14 45 -14 19z"/>
<path d="M2082 695 c0 -16 2 -22 5 -12 2 9 2 23 0 30 -3 6 -5 -1 -5 -18z"/>
<path d="M2697 689 c-4 -16 -3 -18 9 -8 7 6 11 15 8 20 -8 13 -11 11 -17 -12z"/>
<path d="M2850 701 c0 -5 5 -13 10 -16 6 -3 10 -2 10 4 0 5 -4 13 -10 16 -5 3
-10 2 -10 -4z"/>
</g>
</svg>
